<svg width="416" height="139" viewBox="0 0 416 139" fill="none" xmlns="http://www.w3.org/2000/svg">
<path d="M123.727 97.3838V15.7278L69.8562 67.8669C68.0281 69.6362 65.1081 69.6362 63.28 67.8669L9.40892 15.7278V97.3838C9.40892 99.9572 7.30266 102.043 4.70446 102.043C2.10626 102.043 0 99.9572 0 97.3838V4.65969L0.00321594 4.48451C0.0714016 2.68007 1.18909 1.06983 2.87918 0.365123C4.62376 -0.362253 6.63872 0.0167749 7.99253 1.32706L66.5681 58.0192L125.144 1.32706C126.497 0.0167749 128.512 -0.362253 130.257 0.365123C132.002 1.09256 133.136 2.78488 133.136 4.65969V97.3838C133.136 99.9572 131.03 102.043 128.432 102.043C125.834 102.043 123.727 99.9572 123.727 97.3838ZM145.658 97.3838V4.65969C145.658 2.08632 147.765 0.000189381 150.363 0.000189381C152.961 0.000189381 155.067 2.08632 155.067 4.65969V97.3838C155.067 99.9572 152.961 102.043 150.363 102.043C147.765 102.043 145.658 99.9572 145.658 97.3838ZM291.376 97.3838V15.7278L237.505 67.8669C235.677 69.6362 232.757 69.6362 230.929 67.8669L177.058 15.7278V97.3838C177.058 99.9572 174.951 102.043 172.353 102.043C169.755 102.043 167.649 99.9572 167.649 97.3838V4.65969C167.649 2.78488 168.783 1.09256 170.528 0.365123C172.273 -0.362253 174.288 0.0167749 175.641 1.32706L234.217 58.0192L292.792 1.32706C294.146 0.0167749 296.161 -0.362253 297.906 0.365123C299.65 1.09256 300.785 2.78488 300.785 4.65969V97.3838C300.785 99.9572 298.679 102.043 296.081 102.043C293.482 102.043 291.376 99.9572 291.376 97.3838Z" fill="#3D1F12"/>
<path d="M406.517 51.0217C406.517 27.99 387.666 9.31918 364.412 9.31918C341.158 9.31918 322.307 27.99 322.307 51.0217C322.307 74.0534 341.158 92.7243 364.412 92.7243C387.666 92.7243 406.517 74.0534 406.517 51.0217ZM415.926 51.0217C415.926 79.2001 392.862 102.043 364.412 102.043C335.962 102.043 312.898 79.2001 312.898 51.0217C312.898 22.8433 335.962 0.000170684 364.412 0.000170684C392.862 0.000170684 415.926 22.8433 415.926 51.0217Z" fill="#3D1F12"/>
<path d="M351.055 138.061H348.489L355.132 119.87H357.874L364.542 138.061H361.95L360.315 133.532H352.666L351.055 138.061ZM356.188 123.795L353.421 131.394H359.585L356.792 123.795C356.666 123.443 356.541 123.015 356.49 122.738C356.44 122.99 356.314 123.418 356.188 123.795Z" fill="#3D1F12"/>
<path d="M342.249 138.061H329.391V135.772L339.154 122.134H329.542V119.87H342.223V122.084L332.385 135.772H342.249V138.061Z" fill="#3D1F12"/>
<path d="M321.994 138.061H310.897V119.87H321.994V122.134H313.363V127.821H321.138V130.01H313.363V135.772H321.994V138.061Z" fill="#3D1F12"/>
<path d="M295.185 119.87V135.772H303.186V138.061H292.719V119.87H295.185Z" fill="#3D1F12"/>
<path d="M284.114 138.061H273.018V119.87H284.114V122.134H275.484V127.821H283.259V130.01H275.484V135.772H284.114V138.061Z" fill="#3D1F12"/>
<path d="M251.916 138.061V119.87H258.86C262.408 119.87 264.572 121.681 264.572 124.676C264.572 126.764 263.666 128.173 261.854 128.928C263.867 129.582 264.899 131.041 264.899 133.205C264.899 136.225 262.71 138.061 259.112 138.061H251.916ZM258.709 122.059H254.381V127.896H258.86C260.898 127.896 262.056 126.789 262.056 124.902C262.056 123.09 260.848 122.059 258.709 122.059ZM259.061 130.035H254.381V135.872H259.061C261.175 135.872 262.358 134.79 262.358 132.903C262.358 131.092 261.15 130.035 259.061 130.035Z" fill="#3D1F12"/>
<path d="M231.398 138.061H220.302V119.87H231.398V122.134H222.768V127.821H230.542V130.01H222.768V135.772H231.398V138.061Z" fill="#3D1F12"/>
<path d="M203.125 138.061H197.111V119.87H203.024C208.459 119.87 212.132 123.543 212.132 128.978C212.132 134.388 208.509 138.061 203.125 138.061ZM202.848 122.134H199.577V135.772H202.949C206.999 135.772 209.566 133.155 209.566 128.978C209.566 124.751 206.999 122.134 202.848 122.134Z" fill="#3D1F12"/>
<path d="M177.013 128.953C177.013 134.489 173.389 138.363 168.231 138.363C163.098 138.363 159.526 134.489 159.526 128.953C159.526 123.443 163.124 119.543 168.257 119.543C173.415 119.543 177.013 123.418 177.013 128.953ZM174.421 128.953C174.421 124.726 171.955 121.933 168.257 121.933C164.558 121.933 162.117 124.726 162.117 128.953C162.117 133.18 164.558 135.998 168.257 135.998C171.955 135.998 174.421 133.155 174.421 128.953Z" fill="#3D1F12"/>
<path d="M141.652 138.061H139.186V119.87H146.055C149.955 119.87 152.27 121.933 152.27 125.33C152.27 127.846 151.012 129.658 148.747 130.387L152.446 138.061H149.703L146.306 130.865H141.652V138.061ZM141.652 122.084V128.676H146.08C148.37 128.676 149.678 127.443 149.678 125.355C149.678 123.241 148.319 122.084 146.055 122.084H141.652Z" fill="#3D1F12"/>
<path d="M118.264 122.134V119.87H131.675V122.134H126.215V138.061H123.749V122.134H118.264Z" fill="#3D1F12"/>
<path d="M98.9806 138.061H96.5148V119.87H98.9806L108.29 133.935V119.87H110.756V138.061H108.29L98.9806 123.996V138.061Z" fill="#3D1F12"/>
<path d="M87.9094 138.061H76.8133V119.87H87.9094V122.134H79.2791V127.821H87.0539V130.01H79.2791V135.772H87.9094V138.061Z" fill="#3D1F12"/>
<path d="M60.6303 138.338C55.4471 138.338 52 134.614 52 128.978C52 123.367 55.5478 119.568 60.7562 119.568C64.8575 119.568 68.0026 122.009 68.682 125.732H66.04C65.3607 123.367 63.3226 121.933 60.6807 121.933C57.0071 121.933 54.5916 124.701 54.5916 128.953C54.5916 133.205 57.0071 135.973 60.6807 135.973C63.3478 135.973 65.4613 134.539 66.1407 132.3H68.7575C67.9775 135.923 64.7317 138.338 60.6303 138.338Z" fill="#3D1F12"/>
</svg>
