<svg width="184" height="90" viewBox="0 0 184 90" fill="none" xmlns="http://www.w3.org/2000/svg">
<path d="M134.274 14.5073C135.257 13.5367 136.72 13.256 137.987 13.7948C139.254 14.3336 140.078 15.5872 140.078 16.976V63.842L178.862 49.2913C180.451 48.6951 182.233 49.3661 183.047 50.8678C183.862 52.3694 183.464 54.2476 182.112 55.2803L138.722 88.415C137.688 89.2047 136.3 89.3352 135.139 88.7517C133.979 88.1682 133.245 86.9712 133.245 85.6615V73.7692L92.9236 88.897C92.1562 89.1849 91.312 89.1849 90.5447 88.897L50.2232 73.7692V85.6615C50.2232 86.9712 49.4894 88.1682 48.3288 88.7517C47.1682 89.3352 45.7806 89.2047 44.7464 88.415L1.35645 55.2803C0.00419314 54.2476 -0.393905 52.3694 0.420905 50.8678C1.23572 49.3661 3.01709 48.6951 4.60616 49.2913L43.3902 63.842V16.976C43.3902 15.5872 44.2141 14.3336 45.4811 13.7948C46.7481 13.256 48.2114 13.5367 49.1946 14.5073L91.7341 56.5021L134.274 14.5073ZM94.122 63.7969C92.7944 65.1074 90.6738 65.1074 89.3462 63.7969L50.2232 25.1747V66.4054L91.7341 81.9798L133.245 66.4054V25.1747L94.122 63.7969ZM43.3902 78.7254V71.2059L24.0324 63.9431L43.3902 78.7254ZM140.078 71.2059V78.7254L159.436 63.9431L140.078 71.2059Z" fill="#3D1F12"/>
<path d="M107.258 14.1902C108.593 15.5381 108.593 17.7235 107.258 19.0714L94.2128 32.2507C92.8785 33.5986 90.7153 33.5986 89.3811 32.2507L76.3354 19.0714C75.0012 17.7235 75.0012 15.5381 76.3354 14.1902L89.3811 1.01093C90.7153 -0.336977 92.8785 -0.336977 94.2128 1.01093L107.258 14.1902ZM83.583 16.6308L91.7969 24.9288L100.011 16.6308L91.7969 8.33274L83.583 16.6308Z" fill="#3D1F12"/>
</svg>
