<svg width="416" height="264" viewBox="0 0 416 264" fill="none" xmlns="http://www.w3.org/2000/svg">
<path d="M250.304 14.5073C251.287 13.5367 252.75 13.256 254.017 13.7948C255.284 14.3336 256.108 15.5872 256.108 16.976V63.842L294.892 49.2913C296.481 48.6951 298.263 49.3661 299.078 50.8678C299.892 52.3694 299.494 54.2476 298.142 55.2803L254.752 88.415C253.718 89.2047 252.33 89.3352 251.17 88.7517C250.009 88.1682 249.275 86.9712 249.275 85.6615V73.7692L208.954 88.897C208.186 89.1849 207.342 89.1849 206.575 88.897L166.254 73.7692V85.6615C166.254 86.9712 165.52 88.1682 164.359 88.7517C163.198 89.3352 161.811 89.2047 160.777 88.415L117.387 55.2803C116.034 54.2476 115.636 52.3694 116.451 50.8678C117.266 49.3661 119.047 48.6951 120.636 49.2913L159.42 63.842V16.976C159.42 15.5872 160.244 14.3336 161.511 13.7948C162.778 13.256 164.242 13.5367 165.225 14.5073L207.764 56.5021L250.304 14.5073ZM210.152 63.7969C208.825 65.1074 206.704 65.1074 205.376 63.7969L166.254 25.1747V66.4054L207.764 81.9798L249.275 66.4054V25.1747L210.152 63.7969ZM159.42 78.7254V71.2059L140.063 63.9431L159.42 78.7254ZM256.108 71.2059V78.7254L275.466 63.9431L256.108 71.2059Z" fill="#3D1F12"/>
<path d="M223.289 14.1902C224.623 15.5381 224.623 17.7235 223.289 19.0714L210.243 32.2507C208.909 33.5986 206.746 33.5986 205.411 32.2507L192.366 19.0714C191.031 17.7235 191.031 15.5381 192.366 14.1902L205.411 1.01093C206.746 -0.336977 208.909 -0.336977 210.243 1.01093L223.289 14.1902ZM199.613 16.6308L207.827 24.9288L216.041 16.6308L207.827 8.33274L199.613 16.6308Z" fill="#3D1F12"/>
<path d="M123.727 222.841V141.185L69.8562 193.324C68.0281 195.094 65.1081 195.094 63.28 193.324L9.40892 141.185V222.841C9.40892 225.415 7.30266 227.501 4.70446 227.501C2.10626 227.501 0 225.415 0 222.841V130.117L0.00321594 129.942C0.0714016 128.137 1.18909 126.527 2.87918 125.822C4.62376 125.095 6.63872 125.474 7.99253 126.784L66.5681 183.477L125.144 126.784C126.497 125.474 128.512 125.095 130.257 125.822C132.002 126.55 133.136 128.242 133.136 130.117V222.841C133.136 225.415 131.03 227.501 128.432 227.501C125.834 227.501 123.727 225.415 123.727 222.841ZM145.658 222.841V130.117C145.658 127.544 147.765 125.458 150.363 125.458C152.961 125.458 155.067 127.544 155.067 130.117V222.841C155.067 225.415 152.961 227.501 150.363 227.501C147.765 227.501 145.658 225.415 145.658 222.841ZM291.376 222.841V141.185L237.505 193.324C235.677 195.094 232.757 195.094 230.929 193.324L177.058 141.185V222.841C177.058 225.415 174.951 227.501 172.353 227.501C169.755 227.501 167.649 225.415 167.649 222.841V130.117C167.649 128.242 168.783 126.55 170.528 125.822C172.273 125.095 174.288 125.474 175.641 126.784L234.217 183.477L292.792 126.784C294.146 125.474 296.161 125.095 297.906 125.822C299.65 126.55 300.785 128.242 300.785 130.117V222.841C300.785 225.415 298.679 227.501 296.081 227.501C293.482 227.501 291.376 225.415 291.376 222.841Z" fill="#3D1F12"/>
<path d="M406.517 176.479C406.517 153.447 387.666 134.777 364.412 134.777C341.158 134.777 322.307 153.447 322.307 176.479C322.307 199.511 341.158 218.182 364.412 218.182C387.666 218.182 406.517 199.511 406.517 176.479ZM415.926 176.479C415.926 204.657 392.862 227.501 364.412 227.501C335.962 227.501 312.898 204.657 312.898 176.479C312.898 148.301 335.962 125.458 364.412 125.458C392.862 125.458 415.926 148.301 415.926 176.479Z" fill="#3D1F12"/>
<path d="M351.055 263.519H348.489L355.132 245.327H357.874L364.542 263.519H361.95L360.315 258.99H352.666L351.055 263.519ZM356.188 249.252L353.421 256.851H359.585L356.792 249.252C356.666 248.9 356.541 248.472 356.49 248.196C356.44 248.447 356.314 248.875 356.188 249.252Z" fill="#3D1F12"/>
<path d="M342.249 263.519H329.391V261.229L339.154 247.592H329.542V245.327H342.223V247.541L332.385 261.229H342.249V263.519Z" fill="#3D1F12"/>
<path d="M321.994 263.519H310.897V245.327H321.994V247.592H313.363V253.278H321.138V255.467H313.363V261.229H321.994V263.519Z" fill="#3D1F12"/>
<path d="M295.185 245.327V261.229H303.186V263.519H292.719V245.327H295.185Z" fill="#3D1F12"/>
<path d="M284.114 263.519H273.018V245.327H284.114V247.592H275.484V253.278H283.259V255.467H275.484V261.229H284.114V263.519Z" fill="#3D1F12"/>
<path d="M251.916 263.519V245.327H258.86C262.408 245.327 264.572 247.139 264.572 250.133C264.572 252.221 263.666 253.63 261.854 254.385C263.867 255.039 264.899 256.499 264.899 258.663C264.899 261.682 262.71 263.519 259.112 263.519H251.916ZM258.709 247.516H254.381V253.354H258.86C260.898 253.354 262.056 252.246 262.056 250.359C262.056 248.548 260.848 247.516 258.709 247.516ZM259.061 255.492H254.381V261.33H259.061C261.175 261.33 262.358 260.248 262.358 258.361C262.358 256.549 261.15 255.492 259.061 255.492Z" fill="#3D1F12"/>
<path d="M231.398 263.519H220.302V245.327H231.398V247.592H222.768V253.278H230.542V255.467H222.768V261.229H231.398V263.519Z" fill="#3D1F12"/>
<path d="M203.125 263.519H197.111V245.327H203.024C208.459 245.327 212.132 249.001 212.132 254.436C212.132 259.845 208.509 263.519 203.125 263.519ZM202.848 247.592H199.577V261.229H202.949C206.999 261.229 209.566 258.612 209.566 254.436C209.566 250.208 206.999 247.592 202.848 247.592Z" fill="#3D1F12"/>
<path d="M177.013 254.41C177.013 259.946 173.389 263.821 168.231 263.821C163.098 263.821 159.526 259.946 159.526 254.41C159.526 248.9 163.124 245 168.257 245C173.415 245 177.013 248.875 177.013 254.41ZM174.421 254.41C174.421 250.183 171.955 247.39 168.257 247.39C164.558 247.39 162.117 250.183 162.117 254.41C162.117 258.637 164.558 261.456 168.257 261.456C171.955 261.456 174.421 258.612 174.421 254.41Z" fill="#3D1F12"/>
<path d="M141.652 263.519H139.186V245.327H146.055C149.955 245.327 152.27 247.39 152.27 250.787C152.27 253.303 151.012 255.115 148.747 255.845L152.446 263.519H149.703L146.306 256.323H141.652V263.519ZM141.652 247.541V254.134H146.08C148.37 254.134 149.678 252.901 149.678 250.812C149.678 248.699 148.319 247.541 146.055 247.541H141.652Z" fill="#3D1F12"/>
<path d="M118.264 247.592V245.327H131.675V247.592H126.215V263.519H123.749V247.592H118.264Z" fill="#3D1F12"/>
<path d="M98.9806 263.519H96.5148V245.327H98.9806L108.29 259.392V245.327H110.756V263.519H108.29L98.9806 249.454V263.519Z" fill="#3D1F12"/>
<path d="M87.9094 263.519H76.8133V245.327H87.9094V247.592H79.2791V253.278H87.0539V255.467H79.2791V261.229H87.9094V263.519Z" fill="#3D1F12"/>
<path d="M60.6303 263.796C55.4471 263.796 52 260.072 52 254.436C52 248.825 55.5478 245.025 60.7562 245.025C64.8575 245.025 68.0026 247.466 68.682 251.19H66.04C65.3607 248.825 63.3226 247.39 60.6807 247.39C57.0071 247.39 54.5916 250.158 54.5916 254.41C54.5916 258.663 57.0071 261.43 60.6807 261.43C63.3478 261.43 65.4613 259.996 66.1407 257.757H68.7575C67.9775 261.38 64.7317 263.796 60.6303 263.796Z" fill="#3D1F12"/>
</svg>
