<svg width="416" height="103" viewBox="0 0 416 103" fill="none" xmlns="http://www.w3.org/2000/svg">
<path d="M123.727 97.3838V15.7278L69.8562 67.8669C68.0281 69.6362 65.1081 69.6362 63.28 67.8669L9.40892 15.7278V97.3838C9.40892 99.9572 7.30266 102.043 4.70446 102.043C2.10626 102.043 0 99.9572 0 97.3838V4.65969L0.00321594 4.48451C0.0714016 2.68007 1.18909 1.06983 2.87918 0.365123C4.62376 -0.362253 6.63872 0.0167749 7.99253 1.32706L66.5681 58.0192L125.144 1.32706C126.497 0.0167749 128.512 -0.362253 130.257 0.365123C132.002 1.09256 133.136 2.78488 133.136 4.65969V97.3838C133.136 99.9572 131.03 102.043 128.432 102.043C125.834 102.043 123.727 99.9572 123.727 97.3838ZM145.658 97.3838V4.65969C145.658 2.08632 147.765 0.000189381 150.363 0.000189381C152.961 0.000189381 155.067 2.08632 155.067 4.65969V97.3838C155.067 99.9572 152.961 102.043 150.363 102.043C147.765 102.043 145.658 99.9572 145.658 97.3838ZM291.376 97.3838V15.7278L237.505 67.8669C235.677 69.6362 232.757 69.6362 230.929 67.8669L177.058 15.7278V97.3838C177.058 99.9572 174.951 102.043 172.353 102.043C169.755 102.043 167.649 99.9572 167.649 97.3838V4.65969C167.649 2.78488 168.783 1.09256 170.528 0.365123C172.273 -0.362253 174.288 0.0167749 175.641 1.32706L234.217 58.0192L292.792 1.32706C294.146 0.0167749 296.161 -0.362253 297.906 0.365123C299.65 1.09256 300.785 2.78488 300.785 4.65969V97.3838C300.785 99.9572 298.679 102.043 296.081 102.043C293.482 102.043 291.376 99.9572 291.376 97.3838Z" fill="#3D1F12"/>
<path d="M406.517 51.0217C406.517 27.99 387.666 9.31918 364.412 9.31918C341.158 9.31918 322.307 27.99 322.307 51.0217C322.307 74.0534 341.158 92.7243 364.412 92.7243C387.666 92.7243 406.517 74.0534 406.517 51.0217ZM415.926 51.0217C415.926 79.2001 392.862 102.043 364.412 102.043C335.962 102.043 312.898 79.2001 312.898 51.0217C312.898 22.8433 335.962 0.000170684 364.412 0.000170684C392.862 0.000170684 415.926 22.8433 415.926 51.0217Z" fill="#3D1F12"/>
</svg>
